<?xml version="1.0"?>
<svg xmlns="http://www.w3.org/2000/svg" xmlns:xlink="http://www.w3.org/1999/xlink" version="1.1" id="Capa_1" x="0px" y="0px" viewBox="0 0 391.377 391.377" style="enable-background:new 0 0 391.377 391.377;" xml:space="preserve" width="512px" height="512px"><g><g>
	<path d="M387.456,91.78c-3.739-6.178-9.648-10.526-16.638-12.245L162.499,28.298c-2.106-0.519-4.27-0.781-6.433-0.781   c-12.471,0-23.259,8.45-26.235,20.551l-6.271,25.498L19.405,106.616c-13.918,4.416-22.089,18.982-18.602,33.163l50.1,203.696   c1.733,7.046,6.122,12.958,12.358,16.647c4.182,2.474,8.837,3.737,13.564,3.737c2.324,0,4.667-0.306,6.977-0.923l160.436-42.907   l63.58,15.638c2.106,0.519,4.271,0.781,6.435,0.781c12.471,0,23.259-8.451,26.233-20.55l50.102-203.698   C392.307,105.211,391.195,97.959,387.456,91.78z M79.246,333.102L30.421,134.595l84.742-26.89L79.732,251.763   c-1.721,6.99-0.608,14.243,3.131,20.422c3.738,6.178,9.646,10.527,16.639,12.247l84.249,20.721L79.246,333.102z M335.706,209.731   l-28.492-43.88c-3.492-5.379-9.295-8.59-15.523-8.59c-4.229,0-8.271,1.438-11.69,4.157l-60.656,48.255   c-1.82,1.449-4.045,2.215-6.434,2.215c-3.137,0-6.058-1.336-8.014-3.663l-22.981-27.35c-4.406-5.242-11.464-8.372-18.879-8.372   c-3.661,0-7.207,0.803-10.254,2.32l-26.477,13.193l31.942-129.871L360.74,107.95L335.706,209.731z" data-original="#000000" class="active-path" data-old_color="#E8E3E3" fill="#EAE8E8"/>
	<path d="M207.988,145.842c2.114,0.52,4.282,0.783,6.442,0.783c12.406,0,23.143-8.423,26.109-20.483   c3.542-14.405-5.295-29.008-19.7-32.552c-2.114-0.52-4.282-0.783-6.442-0.783c-12.406,0-23.143,8.423-26.109,20.483   C184.746,127.695,193.583,142.298,207.988,145.842z" data-original="#000000" class="active-path" data-old_color="#E8E3E3" fill="#EAE8E8"/>
</g></g> </svg>
